<?xml version="1.0" encoding="utf-8"?>
<svg version="1.1" xmlns="http://www.w3.org/2000/svg" xmlns:xlink="http://www.w3.org/1999/xlink" height="30" width="30">
  <defs>
    <path id="path-1" opacity="1" fill-rule="evenodd" d="M15,2.019230769230769 C18.468750000000004,2.019230769230769 21.728365384615387,3.3677884615384617 24.180288461538463,5.819711538461537 C26.632211538461544,8.271634615384615 27.98076923076923,11.53125 27.98076923076923,15 C27.98076923076923,18.46875 26.63221153846154,21.728365384615387 24.180288461538463,24.180288461538463 C21.72836538461539,26.632211538461544 18.468750000000004,27.98076923076923 15,27.98076923076923 C11.53125,27.98076923076923 8.271634615384615,26.63221153846154 5.819711538461537,24.180288461538463 C3.3677884615384612,21.72836538461539 2.019230769230769,18.468750000000004 2.019230769230769,15 C2.019230769230769,11.531249999999996 3.3677884615384617,8.271634615384615 5.819711538461537,5.819711538461537 C8.271634615384615,3.3677884615384612 11.53125,2.019230769230769 15,2.019230769230769 L15,0 C6.7139423076923075,0 0,6.7139423076923075 0,15 C0,23.28605769230769 6.7139423076923075,30 15,30 C23.28605769230769,30 30,23.28605769230769 30,15 C30,6.713942307692308 23.28605769230769,0 15,0 L15,2.019230769230769Z"/>
    <path id="path-2" opacity="1" fill-rule="evenodd" d="M19.6153564453125,11.733173370361328 C19.6153564453125,9.576923370361328 17.7548828125,8.076923370361328 15.050537109375,8.076923370361328 C12.1514892578125,8.076923370361328 10.4351806640625,9.713943481445312 10.3846435546875,12.036056518554688 L12.9447021484375,12.036056518554688 C13.00244140625,10.96875 13.7884521484375,10.262020111083984 14.87744140625,10.262020111083984 C15.951904296875,10.262020111083984 16.8173828125,10.918270111083984 16.8173828125,11.8125 C16.8173828125,12.706729888916016 16.3052978515625,13.168270111083984 15.0865478515625,13.896636962890625 C13.78125,14.661056518554688 13.2620849609375,15.584136962890625 13.3846435546875,17.06970977783203 L13.40625,17.689903259277344 L15.90869140625,17.689903259277344 L15.90869140625,17.120193481445312 C15.90869140625,16.197113037109375 16.3341064453125,15.663459777832031 17.5889892578125,14.935096740722656 C18.923095703125,14.149040222167969 19.6153564453125,13.161056518554688 19.6153564453125,11.733173370361328 L19.6153564453125,11.733173370361328ZM14.697021484375,18.951919555664062 C13.8460693359375,18.951919555664062 13.15380859375,19.608169555664062 13.15380859375,20.4375 C13.15380859375,21.274032592773438 13.8388671875,21.923072814941406 14.697021484375,21.923072814941406 C15.5552978515625,21.923072814941406 16.24755859375,21.274032592773438 16.24755859375,20.4375 C16.24755859375,19.60095977783203 15.5552978515625,18.951919555664062 14.697021484375,18.951919555664062 L14.697021484375,18.951919555664062Z"/>
  </defs>
  <g opacity="1">
    <g opacity="1">
      <use xlink:href="#path-1" fill="rgb(224,224,224)" fill-opacity="1"/>
    </g>
    <g opacity="1">
      <use xlink:href="#path-2" fill="rgb(224,224,224)" fill-opacity="1"/>
    </g>
  </g>
</svg>