<?xml version="1.0" encoding="utf-8"?>
<svg version="1.1" xmlns="http://www.w3.org/2000/svg" xmlns:xlink="http://www.w3.org/1999/xlink" height="46" width="46">
  <defs>
    <path id="path-1" opacity="1" fill-rule="evenodd" d="M0,23 C0,10.29473876953125 10.29473876953125,0 23,0 C35.70526123046875,0 46,10.29473876953125 46,23 C46,35.70526123046875 35.70526123046875,46 23,46 C10.29473876953125,46 0,35.70526123046875 0,23 L0,23ZM19.98126220703125,31.4923095703125 L34.77642822265625,16.64178466796875 C34.953369140625,16.46490478515625 34.953369140625,16.1884765625 34.75433349609375,16.00048828125 L32.8192138671875,13.9990234375 C32.7418212890625,13.91058349609375 32.6312255859375,13.8663330078125 32.5096435546875,13.8663330078125 C32.3990478515625,13.8663330078125 32.2884521484375,13.91058349609375 32.20001220703125,13.9990234375 L18.7095947265625,27.58892822265625 L13.79998779296875,22.6793212890625 C13.7115478515625,22.59088134765625 13.6009521484375,22.546630859375 13.49041748046875,22.546630859375 C13.37982177734375,22.546630859375 13.26922607421875,22.59088134765625 13.1807861328125,22.6793212890625 L11.2125244140625,24.6475830078125 C11.03558349609375,24.82452392578125 11.03558349609375,25.1009521484375 11.2125244140625,25.27789306640625 L17.40478515625,31.47015380859375 C17.80291748046875,31.8682861328125 18.27838134765625,32.1004638671875 18.69854736328125,32.1004638671875 C19.28460693359375,32.1004638671875 19.79327392578125,31.6802978515625 19.98126220703125,31.4923095703125 L19.98126220703125,31.4923095703125Z"/>
  </defs>
  <g opacity="1">
    <g opacity="1">
      <use xlink:href="#path-1" fill="rgb(255,255,255)" fill-opacity="1"/>
    </g>
  </g>
</svg>