<?xml version="1.0" encoding="utf-8"?>
<svg version="1.1" xmlns="http://www.w3.org/2000/svg" xmlns:xlink="http://www.w3.org/1999/xlink" height="20.500000000000455" width="78.29998462488788">
  <defs>
    <path id="path-1" opacity="1" fill-rule="evenodd" d="M17.388461948516692,6.53515151515178 L12.042158722554843,6.53515151515178 C12.042158722554843,5.690303030303293 11.938347009429371,5.11878787878814 11.730723583178424,4.845454545454807 C11.419288443802007,4.423030303030563 10.536888882235488,4.199393939394199 9.083524898478869,4.199393939394199 C7.682066771284987,4.199393939394199 6.747761353155732,4.323636363636623 6.306561572372472,4.572121212121472 C5.865361791589213,4.820606060606321 5.631785437056899,5.342424242424504 5.631785437056899,6.187272727272991 C5.631785437056899,6.932727272727537 5.8394088633078445,7.429696969697235 6.228702787528368,7.653333333333599 C6.514184998623418,7.827272727272993 6.9034789228439415,7.926666666666934 7.370631631908568,7.9515151515154185 L8.460654619726034,8.026060606060874 C10.770465236767802,8.175151515151782 12.223829220524422,8.274545454545722 12.794793642714522,8.324242424242692 C14.637451550691662,8.498181818182088 15.961050893041442,8.970303030303299 16.765591669763854,9.715757575757847 C17.41441487679806,10.312121212121484 17.80370880101858,11.082424242424516 17.933473442425424,12.026666666666943 C18.011332227269527,12.598181818182097 18.037285155550897,13.244242424242705 18.037285155550897,13.964848484848766 C18.037285155550897,15.60484848484877 17.88156758586269,16.82242424242453 17.544179518204903,17.592727272727558 C16.947262167733435,19.009090909091196 15.597709897102284,19.87878787878817 13.521475634592829,20.25151515151544 C12.63907607302631,20.40060606060635 11.315476730676533,20.50000000000029 9.524724679262128,20.50000000000029 C6.514184998623416,20.50000000000029 4.43795073611396,20.326060606060896 3.2441160351710234,19.978181818182108 C1.7907520514144049,19.555757575757866 0.8304937050037812,18.710909090909382 0.38929392422052206,17.418787878788166 C0.12976464140684105,16.698181818182103 0,15.505454545454826 0,13.84060606060634 L5.346303225961849,13.84060606060634 L5.346303225961849,14.263030303030586 C5.346303225961849,15.15757575757604 5.605832508775531,15.729090909091193 6.150844002684264,15.977575757576044 C6.514184998623418,16.151515151515436 6.955384779406678,16.250909090909374 7.50039627331541,16.250909090909374 L9.472818822699391,16.250909090909374 C10.484983025672753,16.250909090909374 11.10785330442559,16.201212121212404 11.393335515520638,16.101818181818466 C11.886441152866634,15.927878787879074 12.197876292243054,15.629696969697257 12.353593861931262,15.207272727273013 C12.431452646775368,14.958787878788163 12.483358503338104,14.635757575757859 12.483358503338104,14.213333333333617 C12.483358503338104,13.318787878788159 12.145970435680319,12.772121212121492 11.445241372083377,12.573333333333613 C11.185712089269694,12.498787878788159 9.991877388326756,12.399393939394217 7.863737269254564,12.250303030303309 C6.150844002684264,12.126060606060886 4.957009301741326,12.026666666666946 4.308186094707121,11.90242424242452 C2.5433869715740838,11.579393939394215 1.3755051989125144,10.933333333333607 0.8045407767224142,9.964242424242697 C0.2854822110950501,9.11939393939421 0.02595292828136821,7.876969696969965 0.02595292828136821,6.187272727272991 C0.02595292828136821,4.895151515151777 0.15571756968820924,3.876363636363895 0.44119978078325933,3.106060606060863 C0.7266819918783095,2.335757575757831 1.167881772661569,1.7393939393941933 1.7907520514144055,1.341818181818435 C2.699104541262293,0.7206060606063126 3.8410333856424934,0.37272727272752404 5.242491512836376,0.24848484848509944 C6.410373285497946,0.14909090909115985 7.708019699566355,0.09939393939419006 9.135430755041606,0.09939393939419006 C11.39333551552064,0.09939393939419006 12.976464140684099,0.22363636363661465 13.936722487094722,0.47212121212146346 C16.27248603241786,1.0684848484851013 17.44036780507943,2.758181818182074 17.44036780507943,5.516363636363899 C17.44036780507943,5.740000000000261 17.414414876798062,6.087878787879051 17.388461948516692,6.53515151515178Z"/>
    <path id="path-2" opacity="1" fill-rule="evenodd" d="M40.9537353515625,0 L40.9537353515625,20.47515869140625 L46.71533203125,20.47515869140625 L46.71533203125,15.18243408203125 L50.14111328125,15.18243408203125 L51.101318359375,15.1575927734375 C52.995849609375,15.13275146484375 54.0599365234375,15.10784912109375 54.3194580078125,15.05816650390625 C56.4476318359375,14.78485107421875 57.84912109375,13.7412109375 58.5498046875,11.9521484375 C58.88720703125,11.05755615234375 59.06884765625,9.566650390625 59.06884765625,7.4793701171875 C59.06884765625,5.76483154296875 58.9132080078125,4.47271728515625 58.6016845703125,3.60302734375 C58.0047607421875,1.9630126953125 56.81103515625,0.86968994140625 55.046142578125,0.347900390625 C54.267578125,0.124267578125 53.151611328125,0 51.6722412109375,0 L40.9537353515625,0 L40.9537353515625,0ZM50.2967529296875,10.43634033203125 L46.7152099609375,10.43634033203125 L46.7152099609375,4.49755859375 L50.3486328125,4.49755859375 C50.945556640625,4.49755859375 51.308837890625,4.49755859375 51.464599609375,4.52239990234375 C52.2431640625,4.64666748046875 52.736328125,4.9945068359375 52.9439697265625,5.59088134765625 C53.07373046875,6.0133056640625 53.1514892578125,6.65936279296875 53.1514892578125,7.529052734375 C53.1514892578125,8.224853515625 53.1256103515625,8.771484375 53.0477294921875,9.119384765625 C52.9439697265625,9.64117431640625 52.7103271484375,10.013916015625 52.3729248046875,10.1878662109375 C52.139404296875,10.3121337890625 51.4385986328125,10.38665771484375 50.2967529296875,10.43634033203125 L50.2967529296875,10.43634033203125Z"/>
    <path id="path-3" opacity="1" fill-rule="evenodd" d="M63.6365966796875,16.9466552734375 L71.3446044921875,16.9466552734375 L72.4605712890625,20.47515869140625 L78.2999267578125,20.47515869140625 L71.7857666015625,0 L63.091552734375,0 L56.6292724609375,20.47515869140625 L62.598388671875,20.47515869140625 L63.6365966796875,16.9466552734375 L63.6365966796875,16.9466552734375ZM67.5035400390625,4.07513427734375 L70.20263671875,12.946044921875 L64.88232421875,12.946044921875 L67.5035400390625,4.07513427734375 L67.5035400390625,4.07513427734375Z"/>
    <path id="path-4" opacity="1" fill-rule="evenodd" d="M33.01212477389964,2.8824242424244386 C35.373841247504146,2.8824242424244386 37.50198136657634,3.926060606060807 38.90343949377022,5.566060606060815 L40.1491800512759,3.006666666666863 C38.17675750189191,1.2672727272729152 35.55551174547373,0.1739393939395768 32.62283084967912,0.1739393939395768 C28.08106840043969,0.1739393939395768 24.214082086515827,2.807878787878983 22.605000533071,6.510303030303243 L20.19137820290376,6.510303030303243 L18.763967147428502,9.442424242424469 L21.878318541192684,9.442424242424469 C21.85236561291132,9.715757575757804 21.85236561291132,9.98909090909114 21.85236561291132,10.262424242424473 C21.85236561291132,10.610303030303262 21.878318541192684,10.933333333333568 21.904271469474057,11.25636363636387 L20.347095772591963,11.25636363636387 L18.919684717116713,14.188484848485096 L22.70881224619647,14.188484848485096 C24.343846727922664,17.816363636363896 28.158927185283787,20.375757575757852 32.62283084967912,20.375757575757852 C34.880735610158155,20.375757575757852 36.95696987266761,19.729696969697244 38.695816067519274,18.636363636363903 L38.695816067519274,15.033333333333585 C37.29435794032539,16.549090909091166 35.27002953437868,17.518181818182082 32.98617184561827,17.518181818182082 C30.338973160918712,17.518181818182082 28.003209615595576,16.20121212121238 26.627704416683066,14.213333333333583 L34.56930047078173,14.213333333333583 L35.99671152625698,11.281212121212358 L25.485775572302863,11.281212121212358 C25.43386971574013,10.933333333333568 25.407916787458763,10.560606060606295 25.407916787458763,10.18787878787902 C25.407916787458763,9.93939393939417 25.43386971574013,9.69090909090932 25.43386971574013,9.442424242424472 L36.905064016104866,9.442424242424472 L38.33247507158012,6.510303030303244 L26.446033918713486,6.510303030303244 C27.743680332781896,4.348484848485054 30.183255591230505,2.8824242424244404 33.01212477389964,2.8824242424244386Z"/>
  </defs>
  <g opacity="1">
    <g opacity="1">
      <use xlink:href="#path-1" fill="rgb(255,255,255)" fill-opacity="1"/>
    </g>
    <g opacity="1">
      <use xlink:href="#path-2" fill="rgb(255,255,255)" fill-opacity="1"/>
    </g>
    <g opacity="1">
      <use xlink:href="#path-3" fill="rgb(255,255,255)" fill-opacity="1"/>
    </g>
    <g opacity="1">
      <use xlink:href="#path-4" fill="rgb(255,255,255)" fill-opacity="1"/>
    </g>
  </g>
</svg>